HIERARCHY
ROOT Hips
{
	OFFSET -0.001795 -0.223333 0.028219
	CHANNELS 6 Xposition Yposition Zposition Zrotation Yrotation Xrotation 
	JOINT LeftUpLeg
	{
		OFFSET 0.069520 -0.091406 -0.006815
		CHANNELS 3 Zrotation Yrotation Xrotation
		JOINT LeftLeg
		{
			OFFSET 0.034277 -0.375199 -0.004496
			CHANNELS 3 Zrotation Yrotation Xrotation
			JOINT LeftFoot
			{
				OFFSET -0.013596 -0.397961 -0.043693
				CHANNELS 3 Zrotation Yrotation Xrotation
				JOINT LeftToe
				{
					OFFSET 0.026358 -0.055791 0.119288
					CHANNELS 3 Zrotation Yrotation Xrotation
					End Site
					{
						OFFSET 0.000000 0.000000 0.000000
					}
				}
			}
		}
	}
	JOINT RightUpLeg
	{
		OFFSET -0.067670 -0.090522 -0.004320
		CHANNELS 3 Zrotation Yrotation Xrotation
		JOINT RightLeg
		{
			OFFSET -0.038290 -0.382569 -0.008850
			CHANNELS 3 Zrotation Yrotation Xrotation
			JOINT RightFoot
			{
				OFFSET 0.015774 -0.398415 -0.042312
				CHANNELS 3 Zrotation Yrotation Xrotation
				JOINT RightToe
				{
					OFFSET -0.025372 -0.048144 0.123348
					CHANNELS 3 Zrotation Yrotation Xrotation
					End Site
					{
						OFFSET 0.000000 0.000000 0.000000
					}
				}
			}
		}
	}
	JOINT Spine
	{
		OFFSET -0.002533 0.108963 -0.026696
		CHANNELS 3 Zrotation Yrotation Xrotation
		JOINT Spine1
		{
			OFFSET 0.005487 0.135180 0.001092
			CHANNELS 3 Zrotation Yrotation Xrotation
			JOINT Spine2
			{
				OFFSET 0.001457 0.052922 0.025425
				CHANNELS 3 Zrotation Yrotation Xrotation
				JOINT Neck
				{
					OFFSET -0.002778 0.213870 -0.042857
					CHANNELS 3 Zrotation Yrotation Xrotation
					JOINT Head
					{
						OFFSET 0.005152 0.064970 0.051349
						CHANNELS 3 Zrotation Yrotation Xrotation
						End Site
						{
							OFFSET 0.000000 0.000000 0.000000
						}
					}
				}
				JOINT LeftShoulder
				{
					OFFSET 0.078845 0.121749 -0.034090
					CHANNELS 3 Zrotation Yrotation Xrotation
					JOINT LeftArm
					{
						OFFSET 0.090977 0.030469 -0.008868
						CHANNELS 3 Zrotation Yrotation Xrotation
						JOINT LeftForeArm
						{
							OFFSET 0.259612 -0.012772 -0.027456
							CHANNELS 3 Zrotation Yrotation Xrotation
							JOINT LeftHand
							{
								OFFSET 0.249234 0.008986 -0.001171
								CHANNELS 3 Zrotation Yrotation Xrotation
								End Site
								{
									OFFSET 0.000000 0.000000 0.000000
								}
							}
						}
					}
				}
				JOINT RightShoulder
				{
					OFFSET -0.081759 0.118833 -0.038615
					CHANNELS 3 Zrotation Yrotation Xrotation
					JOINT RightArm
					{
						OFFSET -0.096012 0.032551 -0.009143
						CHANNELS 3 Zrotation Yrotation Xrotation
						JOINT RightForeArm
						{
							OFFSET -0.253742 -0.013329 -0.021401
							CHANNELS 3 Zrotation Yrotation Xrotation
							JOINT RightHand
							{
								OFFSET -0.255298 0.007772 -0.005559
								CHANNELS 3 Zrotation Yrotation Xrotation
								End Site
								{
									OFFSET 0.000000 0.000000 0.000000
								}
							}
						}
					}
				}
			}
		}
	}
}
MOTION
Frames: 5
Frame Time: 0.050000
-0.290210 0.941286 0.243090 -172.268393 43.261279 -171.819688 6.237040 -3.792873 -13.440949 -56.165653 -18.039198 63.492244 35.524846 23.290407 54.459362 0.000000 0.000000 0.000000 17.724912 -6.226709 -27.190388 -30.736340 -18.808091 42.405286 24.681053 20.256628 11.513612 0.000000 0.000000 0.000000 2.944558 -1.545000 10.723129 0.631662 -2.488243 -9.161473 -0.584096 5.238860 13.113740 5.392206 5.326090 -24.674081 0.000000 0.000000 0.000000 -1.836755 0.327612 -25.445567 -45.199024 24.938223 -19.642587 -109.781890 -26.056432 12.045337 0.000000 0.000000 0.000000 2.876874 -15.080525 0.547339 64.506709 -11.834622 6.940762 67.735775 81.251932 89.923833 0.000000 0.000000 0.000000 
-0.235965 0.925162 0.194157 -174.416979 43.819938 -173.878356 7.363889 -6.887053 -23.180119 -71.841544 -16.344982 64.759187 50.885133 28.834799 69.471251 0.000000 0.000000 0.000000 15.230280 -3.399765 -21.120366 -32.510543 -20.690422 44.176946 25.889181 21.120325 4.579385 0.000000 0.000000 0.000000 1.899118 -1.659732 11.507481 -0.270666 -1.632756 -10.785285 0.711495 8.241959 14.064223 3.811322 4.598750 -25.024416 0.000000 0.000000 0.000000 -2.247431 -0.244291 -29.624917 -41.725704 32.225602 -20.727070 -105.424279 -20.080865 4.181947 0.000000 0.000000 0.000000 3.989492 -14.537001 3.816642 64.335159 -1.719522 10.933827 3.398546 87.184042 34.594939 0.000000 0.000000 0.000000 
-0.182835 0.939129 0.144946 -175.569185 45.031224 -173.970988 8.663209 -10.379834 -29.993966 -57.091044 -18.899248 53.338059 52.158298 26.784131 63.128273 0.000000 0.000000 0.000000 13.062849 -0.993781 -14.741405 -28.122783 -21.144077 41.336712 28.919125 18.981133 8.611925 0.000000 0.000000 0.000000 -0.342223 -1.410172 11.182227 -1.245590 -0.860296 -12.494136 3.721427 11.107001 15.447468 4.056687 4.089370 -25.452776 0.000000 0.000000 0.000000 -0.710895 -1.018604 -32.113859 -40.293013 37.337791 -22.780092 -105.089423 -16.117850 -1.280613 0.000000 0.000000 0.000000 3.413867 -14.511424 5.448438 65.526552 5.493747 16.167134 -83.068323 81.997897 -41.500582 0.000000 0.000000 0.000000 
-0.126821 0.964548 0.091153 -176.106142 47.018987 -173.232969 10.555950 -11.793881 -32.380949 -28.389289 -14.496176 31.221161 34.803927 16.635498 42.107800 0.000000 0.000000 0.000000 10.035843 0.051769 -8.194347 -21.177037 -18.912426 34.998280 31.971286 14.631094 15.152607 0.000000 0.000000 0.000000 -2.177072 -0.636285 7.746717 1.117811 -1.389931 -10.838214 2.502466 15.254053 16.438680 6.579581 2.668363 -23.723104 0.000000 0.000000 0.000000 1.191477 0.300856 -31.730069 -39.829741 38.107964 -24.048907 -105.685313 -14.706638 -4.983231 0.000000 0.000000 0.000000 1.529528 -13.677659 5.895467 68.101458 8.532535 21.369033 -105.453061 76.229516 -54.909487 0.000000 0.000000 0.000000 
-0.067599 0.986503 0.033641 -177.051923 48.394576 -173.790198 7.037037 -10.055454 -30.330948 -10.087632 -7.339636 18.004415 13.380497 9.184968 33.114394 0.000000 0.000000 0.000000 8.344779 0.020538 -4.909000 -20.144770 -18.396715 34.164682 31.037881 12.834989 20.648971 0.000000 0.000000 0.000000 -4.048781 -0.636950 6.646780 -0.322177 -2.142023 -8.889611 5.238836 16.351423 13.566379 5.867065 1.643123 -20.508481 0.000000 0.000000 0.000000 2.007794 0.863306 -29.192080 -41.403575 39.427509 -25.939000 -106.516777 -13.311347 -7.600957 0.000000 0.000000 0.000000 -1.098956 -10.222910 5.590532 68.783385 4.072992 19.416371 -126.889156 74.984200 -73.755303 0.000000 0.000000 0.000000 
